# AST/ASF file generated using VICON BodyLanguage
# -----------------------------------------------
:version 1.10
:name VICON
:units
  mass 1.0
  length 0.45
  angle deg
:documentation
   .ast/.asf automatically generated from VICON data using
   VICON BodyBuilder and BodyLanguage model FoxedUp or BRILLIANT.MOD
:root
   order TX TY TZ RX RY RZ
   axis XYZ
   position 0 0 0  
   orientation 0 0 0 
:bonedata
  begin
     id 1 
     name lhipjoint
     direction 0.693937 -0.600361 0.397515 
     length 2.37164 
     axis 0 0 0  XYZ
  end
  begin
     id 2 
     name lfemur
     direction 0.34202 -0.939693 0  
     length 6.18497  
     axis 0 0 20  XYZ
    dof rx ry rz
    limits (-160.0 20.0)
           (-70.0 70.0)
           (-60.0 70.0)
  end
  begin
     id 3 
     name ltibia
     direction 0.34202 -0.939693 0   
     length 6.91601   
     axis 0 0 20   XYZ
    dof rx
    limits (-10.0 170.0)
  end
  begin
     id 4 
     name lfoot
     direction 0.0978718 -0.2689 0.958182   
     length 1.81453   
     axis -90 7.62852e-016 20   XYZ
    dof rx rz
    limits (-45.0 90.0)
           (-70.0 20.0)
  end
  begin
     id 5 
     name ltoes
     direction 1.53569e-011 -4.21951e-011 1   
     length 0.912052   
     axis -90 7.62852e-016 20   XYZ
    dof rx
    limits (-90.0 20.0)
  end
  begin
     id 6 
     name rhipjoint
     direction -0.643996 -0.637876 0.422354   
     length 2.23216  
     axis 0 0 0  XYZ 
  end
  begin
     id 7 
     name rfemur
     direction -0.34202 -0.939693 0   
     length 6.15404   
     axis 0 0 -20   XYZ
    dof rx ry rz
    limits (-160.0 20.0)
           (-70.0 70.0)
           (-70.0 60.0)
  end
  begin
     id 8 
     name rtibia
     direction -0.34202 -0.939693 0   
     length 6.86744   
     axis 0 0 -20   XYZ
    dof rx
    limits (-10.0 170.0)
 end
 begin
     id 9 
     name rfoot
     direction -0.118701 -0.326127 0.937844   
     length 1.9243  
     axis -90 -7.62852e-016 -20   XYZ
    dof rx rz
    limits (-45.0 90.0)
           (-20.0 70.0)
  end
  begin
     id 10 
     name rtoes
     direction -1.5356e-011 -4.2181e-011 1   
     length 0.958865   
     axis -90 -7.62852e-016 -20   XYZ
    dof rx
    limits (-90.0 20.0)
  end
  begin
     id 11 
     name lowerback
     direction 0.0310826 0.968686 -0.246334   
     length 2.00021   
     axis 0 0 0   XYZ
    dof rx ry rz
    limits (-20.0 45.0)
           (-30.0 30.0)
           (-30.0 30.0)
  end
  begin
     id 12 
     name upperback
     direction -0.0152834 0.999474 -0.0286152   
     length 2.03728   
     axis 0 0 0   XYZ
    dof rx ry rz
    limits (-20.0 45.0)
           (-30.0 30.0)
           (-30.0 30.0)
  end
  begin
     id 13 
     name thorax
     direction -0.0323701 0.996236 0.0804149   
     length 2.16   
     axis 0 0 0   XYZ
    dof rx ry rz
    limits (-20.0 45.0)
           (-30.0 30.0)
           (-30.0 30.0)
  end
  begin
     id 14 
     name lowerneck
     direction 0.0307935 0.982251 0.185027   
     length 1.43558   
     axis 0 0 0   XYZ
    dof rx ry rz
    limits (-20.0 45.0)
           (-30.0 30.0)
           (-30.0 30.0)
  end
  begin
     id 15 
     name upperneck
     direction -0.0927153 0.994775 0.0427454   
     length 1.44603   
     axis 0 0 0   XYZ
    dof rx ry rz
    limits (-20.0 45.0)
           (-30.0 30.0)
           (-30.0 30.0)
  end
  begin
     id 16
     name head
     direction -0.0341265 0.999406 -0.00472033  
     length 1.45931  
     axis 0 0 0   XYZ
    dof rx ry rz
    limits (-20.0 45.0)
           (-30.0 30.0)
           (-30.0 30.0)
  end
  begin
     id 17 
     name lclavicle
     direction 0.820755 0.555306 -0.134151  
     length 2.66075  
     axis 0 0 0   XYZ
    dof ry rz
    limits (-20.0 10.0)
           (0.0 20.0)
  end
  begin
     id 18 
     name lhumerus
     direction 1 -4.48971e-011 5.24853e-027   
     length 5.0546   
     axis -180 -30 -90   XYZ
    dof rx ry rz
    limits (-60.0 90.0)
           (-90.0 90.0)
           (-90.0 90.0)
  end
  begin
     id 19
     name lradius
     direction 1 -4.48971e-011 2.76575e-028   
     length 3.39013   
     axis -180 -30 -90   XYZ
    dof rx
    limits (-10.0 170.0)
  end
  begin
     id 20
     name lwrist
     direction 1 -4.48939e-011 -2.27826e-027   
     length 1.69507   
     axis 2.17013e-015 90 90   XYZ
    dof ry
    limits (-180.0 0.0)
 end
  begin
     id 21 
     name lhand
     direction 1 -4.49009e-011 -4.55652e-027   
     length 0.572425   
     axis 2.90745e-015 90 90   XYZ
    dof rx rz
    limits (-90.0 90.0)
           (-45.0 45.0)
  end
  begin
     id 22 
     name lfingers
     direction 1 -4.48955e-011 -9.11303e-027   
     length 0.461504   
     axis 5.81489e-015 90 90   XYZ
    dof rx
    limits (0.0 90.0)
  end
  begin
     id 23
     name lthumb
     direction 0.707107 -6.34929e-011 0.707107   
     length 0.66263   
     axis -90 45 2.85299e-015   XYZ
    dof rx rz
    limits (-45.0 45.0)
           (-45.0 45.0)
  end
  begin
     id 24 
     name rclavicle
     direction -0.754477 0.632921 -0.173712   
     length 2.73081  
     axis 0 0 0   XYZ 
    dof ry rz
    limits (-10.0 20.0)
           (-20.0 0.0)
  end
  begin
     id 25 
     name rhumerus
     direction -1 -4.48969e-011 5.1496e-027  
     length 5.0701   
     axis -180 30 90   XYZ
    dof rx ry rz
    limits (-90.0 60.0)
           (-90.0 90.0)
           (-90.0 90.0)
  end
  begin
     id 26 
     name rradius
     direction -1 -4.48967e-011 -7.15624e-028   
     length 3.14957   
     axis -180 30 90   XYZ
    dof rx
    limits (-10.0 170.0)
  end
  begin
     id 27 
     name rwrist
     direction -1 -4.48938e-011 -2.27826e-027   
     length 1.57479   
     axis 2.17013e-015 -90 -90   XYZ
    dof ry
    limits (-180.0 0.0)
  end
  begin
     id 28
     name rhand
     direction -1 -4.49008e-011 -4.55652e-027   
     length 0.718191   
     axis 2.90745e-015 -90 -90   XYZ
    dof rx rz
    limits (-90.0 90.0)
           (-45.0 45.0)
  end
  begin
     id 29
     name rfingers
     direction -1 -4.48953e-011 -9.11303e-027   
     length 0.579024   
     axis 5.81489e-015 -90 -90   XYZ
    dof rx
    limits (0.0 90.0)
  end
  begin
     id 30
     name rthumb
     direction -0.707107 -6.34937e-011 0.707107   
     length 0.831366   
     axis -90 -45 -2.85299e-015   XYZ
    dof rx rz
    limits (-45.0 45.0)
           (-45.0 45.0)
  end
:hierarchy
  begin
    root lhipjoint rhipjoint lowerback
    lhipjoint lfemur
    lfemur ltibia
    ltibia lfoot
    lfoot ltoes
    rhipjoint rfemur
    rfemur rtibia
    rtibia rfoot
    rfoot rtoes
    lowerback upperback
    upperback thorax
    thorax lowerneck lclavicle rclavicle
    lowerneck upperneck
    upperneck head
    lclavicle lhumerus
    lhumerus lradius
    lradius lwrist
    lwrist lhand lthumb
    lhand lfingers
    rclavicle rhumerus
    rhumerus rradius
    rradius rwrist
    rwrist rhand rthumb
    rhand rfingers
  end

#!OML:ASF H:\Male1\Project 1\Capture day 1\Session 1\Male1.ASF
:FULLY-SPECIFIED
:DEGREES
147
root 3.8359 15.2822 0.997152 665.211 83.934 667.385
lowerback 5.20852 2.38223 4.96797
upperback 4.41698 3.45875 0.310656
thorax 1.91864 1.90215 -2.56656
lowerneck -12.5638 3.6579 7.29051
upperneck 16.0867 4.11685 -2.58921
head 7.21305 2.22851 -1.62152
rclavicle -5.34731e-014 7.7526e-015
rhumerus -30.6186 11.0986 -89.9905
rradius 40.5369
rwrist -19.8963
rhand -17.3446 0.036287
rfingers 7.12502
rthumb 8.90277 -29.7559
lclavicle -5.34731e-014 7.7526e-015
lhumerus -42.856 6.91324 74.0147
lradius 23.0952
lwrist -9.55455
lhand -17.6004 13.1423
lfingers 7.12502
lthumb 8.65602 42.9448
rfemur 23.4814 6.15911 36.5045
rtibia 2.54444e-014
rfoot -18.615 -23.0242
rtoes -19.2935
lfemur -32.3854 -16.9942 -10.3005
ltibia 28.9201
lfoot -22.9704 24.2554
ltoes 3.33591
148
root 4.15321 15.2579 0.994497 666.581 83.7096 668.957
lowerback 5.27983 2.38085 5.06272
upperback 4.52531 3.46604 0.284178
thorax 2.00018 1.91461 -2.64658
lowerneck -12.6243 3.75649 7.26069
upperneck 16.0496 4.23752 -2.51742
head 7.21579 2.28896 -1.57981
rclavicle -1.87852e-014 -7.55382e-015
rhumerus -30.4855 11.1656 -90.0184
rradius 40.911
rwrist -20.0571
rhand -17.2369 -0.185197
rfingers 7.12502
rthumb 9.00679 -29.9729
lclavicle -1.87852e-014 -7.55382e-015
lhumerus -42.9918 7.39285 73.4693
lradius 22.5949
lwrist -10.1964
lhand -17.6102 13.2336
lfingers 7.12502
lthumb 8.64652 43.0365
rfemur 24.9332 5.40477 36.2471
rtibia -3.18055e-014
rfoot -18.0874 -22.2204
rtoes -20.8357
lfemur -32.4819 -18.9862 -9.45991
ltibia 27.6714
lfoot -23.8067 25.4815
ltoes 3.08603
149
root 4.47333 15.2374 0.987723 668.504 83.492 671.02
lowerback 5.27744 2.40364 5.07455
upperback 4.60132 3.49729 0.252652
thorax 2.08612 1.93563 -2.68355
lowerneck -12.8051 3.82967 7.20806
upperneck 16.2371 4.31372 -2.38239
head 7.30862 2.33557 -1.51555
rclavicle 1.81391e-014 1.03368e-014
rhumerus -30.5028 11.2607 -90.0977
rradius 41.272
rwrist -20.2823
rhand -17.3655 -0.349638
rfingers 7.12502
rthumb 8.88262 -30.1427
lclavicle 1.81391e-014 1.03368e-014
lhumerus -42.9831 7.73479 73.1147
lradius 22.0649
lwrist -10.945
lhand -17.4694 13.4333
lfingers 7.12502
lthumb 8.78235 43.2305
rfemur 26.2923 4.75999 35.8121
rtibia 2.54444e-014
rfoot -16.9831 -21.2724
rtoes -22.7381
lfemur -32.0419 -18.9707 -9.60736
ltibia 27.1684
lfoot -23.5736 24.6321
ltoes 3.38696
150
root 4.80206 15.2189 0.980613 669.548 83.1939 672.151
lowerback 5.17986 2.44616 5.14195
upperback 4.62873 3.54986 0.271709
thorax 2.17689 1.96618 -2.69627
lowerneck -12.8882 3.8261 7.21713
upperneck 16.3726 4.30415 -2.38297
head 7.36725 2.33318 -1.51638
rclavicle 2.47487e-014 -1.39149e-014
rhumerus -30.6858 11.2361 -90.152
rradius 41.5716
rwrist -20.3952
rhand -17.4609 -0.214236
rfingers 7.12502
rthumb 8.79058 -30.0112
lclavicle 2.47487e-014 -1.39149e-014
lhumerus -42.8997 8.21098 72.771
lradius 21.5154
lwrist -12.0606
lhand -17.1879 13.3045
lfingers 7.12502
lthumb 9.05403 43.0901
rfemur 27.6195 4.13704 35.4175
rtibia -3.81667e-014
rfoot -15.5233 -20.0863
rtoes -23.4517
lfemur -31.6068 -17.965 -10.0448
ltibia 27.2279
lfoot -21.7897 23.1544
ltoes 2.65725
151
root 5.13892 15.1996 0.972816 669.084 82.9277 671.709
lowerback 4.94938 2.46753 5.28368
upperback 4.58119 3.56686 0.323227
thorax 2.26376 1.97739 -2.71148
lowerneck -12.8405 3.77778 7.27198
upperneck 16.4827 4.25151 -2.46992
head 7.39524 2.30667 -1.55972
rclavicle -3.62782e-015 1.47101e-014
rhumerus -30.9652 11.2051 -90.2014
rradius 41.519
rwrist -20.5041
rhand -17.517 -0.0368174
rfingers 7.12502
rthumb 8.73641 -29.836
lclavicle -3.62782e-015 1.47101e-014
lhumerus -42.7469 9.11784 72.1952
lradius 20.7987
lwrist -13.7854
lhand -16.9133 13.1632
lfingers 7.12502
lthumb 9.31897 42.9372
rfemur 28.869 3.39982 35.0564
rtibia 5.725e-014
rfoot -13.7579 -18.9289
rtoes -24.6279
lfemur -30.6668 -15.7729 -11.0768
ltibia 27.6905
lfoot -19.3045 20.3912
ltoes -1.52004
152
root 5.48782 15.1761 0.963776 669.033 82.6086 671.678
lowerback 4.66917 2.51661 5.39348
upperback 4.44896 3.61502 0.380547
thorax 2.2906 1.99853 -2.70365
lowerneck -12.825 3.75322 7.2357
upperneck 16.8873 4.21934 -2.34204
head 7.52016 2.31018 -1.51395
rclavicle -4.24405e-014 2.38542e-015
rhumerus -31.3396 11.2073 -90.3077
rradius 41.1494
rwrist -20.5243
rhand -17.5896 -0.126076
rfingers 7.12502
rthumb 8.66635 -29.9282
lclavicle -4.24405e-014 2.38542e-015
lhumerus -42.712 10.0344 71.6397
lradius 20.2418
lwrist -15.254
lhand -16.6731 13.3832
lfingers 7.12502
lthumb 9.55076 43.1468
rfemur 30.1254 2.7563 34.6692
rtibia -1.59028e-014
rfoot -11.5549 -17.8572
rtoes -26.6625
lfemur -29.6346 -14.1837 -11.8991
ltibia 28.3146
lfoot -17.3225 18.0115
ltoes -3.93692
153
root 5.84691 15.1582 0.952615 670.097 82.2137 672.783
lowerback 4.34563 2.61915 5.45931
upperback 4.29703 3.72976 0.410653
thorax 2.32612 2.05148 -2.6981
lowerneck -12.7452 3.73691 7.24138
upperneck 17.26 4.17911 -2.1309
head 7.62294 2.32116 -1.44929
rclavicle 5.84924e-014 1.98785e-014
rhumerus -31.8292 10.9979 -90.4072
rradius 40.7946
rwrist -20.2848
rhand -17.5195 -0.228738
rfingers 7.12502
rthumb 8.73406 -30.028
lclavicle 5.84924e-014 1.98785e-014
lhumerus -42.7793 10.6595 71.3283
lradius 20.0969
lwrist -15.8181
lhand -16.3083 13.747
lfingers 7.12502
lthumb 9.90268 43.4941
rfemur 31.3755 2.29822 34.2033
rtibia -2.22639e-014
rfoot -8.70959 -16.827
rtoes -28.83
lfemur -28.3927 -13.3656 -12.513
ltibia 28.9091
lfoot -15.9527 16.5293
ltoes -4.93224
154
root 6.21756 15.1761 0.937424 672.795 82.2102 675.49
lowerback 4.07402 2.68354 5.1269
upperback 4.1061 3.78807 0.260663
thorax 2.27125 2.06464 -2.6605
lowerneck -12.7169 3.72034 7.37039
upperneck 17.5321 4.1126 -1.96757
head 7.70493 2.32082 -1.42268
rclavicle -1.28216e-014 -7.15625e-015
rhumerus -32.442 10.6408 -90.5874
rradius 40.2499
rwrist -19.7708
rhand -17.6151 0.289158
rfingers 7.12502
rthumb 8.64175 -29.514
lclavicle -1.28216e-014 -7.15625e-015
lhumerus -42.7383 11.2331 71.0814
lradius 20.0032
lwrist -15.9353
lhand -16.0775 14.0122
lfingers 7.12502
lthumb 10.1254 43.7486
rfemur 32.4874 1.83164 33.1536
rtibia 1.90833e-014
rfoot -5.40212 -15.7166
rtoes -29.7781
lfemur -27.46 -14.1365 -13.0417
ltibia 29.2699
lfoot -14.3176 16.5869
ltoes -5.27477
155
root 6.58773 15.197 0.920729 679.011 82.8324 681.744
lowerback 4.0402 2.6896 4.01817
upperback 3.84909 3.76642 -0.15259
thorax 1.97216 2.01659 -2.47734
lowerneck -12.9785 3.71272 7.54843
upperneck 18.002 4.02018 -1.78082
head 7.90424 2.31578 -1.39365
rclavicle -3.6477e-014 -5.96354e-015
rhumerus -33.1876 10.0519 -90.848
rradius 39.6761
rwrist -19.1533
rhand -17.7155 0.486561
rfingers 7.12502
rthumb 8.54487 -29.3205
lclavicle -3.6477e-014 -5.96354e-015
lhumerus -42.5787 11.4229 71.0628
lradius 19.9405
lwrist -15.5805
lhand -16.1241 14.24
lfingers 7.12502
lthumb 10.0804 43.9785
rfemur 33.5398 1.27709 31.2035
rtibia 6.04305e-014
rfoot -1.54074 -14.647
rtoes -29.2013
lfemur -26.3684 -14.8389 -14.52
ltibia 29.5055
lfoot -12.7169 16.6671
ltoes -5.82438
156
root 6.9481 15.2126 0.90558 687.4 83.5723 690.217
lowerback 3.7621 2.7418 2.74366
upperback 3.75294 3.79754 -0.607769
thorax 1.97356 2.00494 -2.22451
lowerneck -12.9756 3.58793 7.51779
upperneck 18.2064 3.80665 -1.49148
head 7.95586 2.247 -1.31532
rclavicle -1.94312e-014 7.15625e-015
rhumerus -33.5992 8.99188 -90.8247
rradius 39.2995
rwrist -18.9271
rhand -17.3026 -0.860111
rfingers 7.12502
rthumb 8.94332 -30.6506
lclavicle -1.94312e-014 7.15625e-015
lhumerus -41.9533 11.2218 71.4714
lradius 19.8426
lwrist -15.196
lhand -16.1941 14.2684
lfingers 7.12502
lthumb 10.0129 44.0103
rfemur 26.4654 0.407076 28.8703
rtibia 15.1329
rfoot -3.64153 -12.4303
rtoes -28.4409
lfemur -25.0965 -14.8129 -16.4522
ltibia 29.7121
lfoot -11.8386 15.139
ltoes -7.70359
